<svg xmlns="http://www.w3.org/2000/svg" version="1.1" xmlns:xlink="http://www.w3.org/1999/xlink" width="512" height="512" x="0" y="0" viewBox="0 0 682.667 682.667" style="enable-background:new 0 0 512 512" xml:space="preserve" class=""><g><defs><clipPath id="a" clipPathUnits="userSpaceOnUse"><path d="M0 512h512V0H0Z" fill="#d7bd00" opacity="1" data-original="#000000" class=""></path></clipPath></defs><g clip-path="url(#a)" transform="matrix(1.33333 0 0 -1.33333 0 682.667)"><path d="M0 0c0 1.293.09 2.565.264 3.811 1.879 13.464 13.572 23.786 27.619 23.502 14.21-.286 25.981-11.666 26.718-25.859.816-15.729-11.712-28.773-27.282-28.773v-28.567" style="stroke-width:15;stroke-linecap:round;stroke-linejoin:round;stroke-miterlimit:10;stroke-dasharray:none;stroke-opacity:1" transform="translate(383.845 414.623)" fill="none" stroke="#d7bd00" stroke-width="15" stroke-linecap="round" stroke-linejoin="round" stroke-miterlimit="10" stroke-dasharray="none" stroke-opacity="" data-original="#000000" opacity="1" class=""></path><path d="M0 0a7.524 7.524 0 0 1 7.525-7.524A7.523 7.523 0 0 1 15.049 0 7.524 7.524 0 1 1 0 0" style="fill-opacity:1;fill-rule:nonzero;stroke:none" transform="translate(403.64 332.864)" fill="#d7bd00" data-original="#000000" opacity="1" class=""></path><path d="M0 0h341.102" style="stroke-width:15;stroke-linecap:round;stroke-linejoin:round;stroke-miterlimit:10;stroke-dasharray:none;stroke-opacity:1" transform="translate(65.043 215.969)" fill="none" stroke="#d7bd00" stroke-width="15" stroke-linecap="round" stroke-linejoin="round" stroke-miterlimit="10" stroke-dasharray="none" stroke-opacity="" data-original="#000000" opacity="1" class=""></path><path d="M0 0h207.574" style="stroke-width:15;stroke-linecap:round;stroke-linejoin:round;stroke-miterlimit:10;stroke-dasharray:none;stroke-opacity:1" transform="translate(65.043 285.787)" fill="none" stroke="#d7bd00" stroke-width="15" stroke-linecap="round" stroke-linejoin="round" stroke-miterlimit="10" stroke-dasharray="none" stroke-opacity="" data-original="#000000" opacity="1" class=""></path><path d="M0 0h207.574" style="stroke-width:15;stroke-linecap:round;stroke-linejoin:round;stroke-miterlimit:10;stroke-dasharray:none;stroke-opacity:1" transform="translate(65.043 355.604)" fill="none" stroke="#d7bd00" stroke-width="15" stroke-linecap="round" stroke-linejoin="round" stroke-miterlimit="10" stroke-dasharray="none" stroke-opacity="" data-original="#000000" opacity="1" class=""></path><path d="M0 0c0-51.548-41.788-93.335-93.335-93.335-51.548 0-93.336 41.787-93.336 93.335 0 51.548 41.788 93.335 93.336 93.335C-41.788 93.335 0 51.548 0 0Z" style="stroke-width:15;stroke-linecap:round;stroke-linejoin:round;stroke-miterlimit:10;stroke-dasharray:none;stroke-opacity:1" transform="translate(504.5 385.582)" fill="none" stroke="#d7bd00" stroke-width="15" stroke-linecap="round" stroke-linejoin="round" stroke-miterlimit="10" stroke-dasharray="none" stroke-opacity="" data-original="#000000" opacity="1" class=""></path><path d="M0 0h-241.259c-25.434 0-46.053-20.618-46.053-46.052v-204.704c0-25.434 20.619-46.052 46.053-46.052h19.407a16.73 16.73 0 0 0 14.477-8.345l51.096-88.216c5.154-8.9 18.004-8.9 23.158 0l51.096 88.216a16.73 16.73 0 0 0 14.478 8.345h190.37c25.434 0 46.052 20.618 46.052 46.052v89.308" style="stroke-width:15;stroke-linecap:round;stroke-linejoin:round;stroke-miterlimit:10;stroke-dasharray:none;stroke-opacity:1" transform="translate(294.812 433.127)" fill="none" stroke="#d7bd00" stroke-width="15" stroke-linecap="round" stroke-linejoin="round" stroke-miterlimit="10" stroke-dasharray="none" stroke-opacity="" data-original="#000000" opacity="1" class=""></path></g></g></svg>