<svg width="649" height="200" viewBox="0 0 649 200" fill="none" xmlns="http://www.w3.org/2000/svg">
<ellipse cx="456.329" cy="83.5443" rx="56.3291" ry="55.6962" fill="#EF1D26"/>
<path d="M105.602 118.015L114.93 124.012C107.101 135.838 91.9438 145.998 70.79 145.998C35.1452 145.998 9.32763 119.847 9.32763 84.0361C9.32763 48.2246 35.6449 22.074 70.79 22.074C88.1128 22.074 104.603 29.2362 112.764 40.7292L102.77 48.0581C97.7735 40.3961 85.9474 32.5675 70.9566 32.5675C40.4752 32.5675 21.9866 56.5529 21.9866 84.0361C21.9866 111.519 40.6418 135.505 70.9566 135.505C84.4484 135.505 97.4404 130.175 105.602 118.015ZM147.531 25.0721V143H135.538V25.0721H147.531ZM190.799 112.019L177.973 143H164.815L215.783 25.0721H227.443L278.079 143H264.753L251.761 112.019H190.799ZM221.28 38.3973L195.296 101.026H247.264L221.28 38.3973ZM295.434 143V25.0721H330.579C348.568 25.0721 368.556 31.5681 368.556 55.2203C368.556 67.5461 360.228 77.7066 347.735 80.5382V80.8713C363.059 82.537 374.386 93.1971 374.386 110.353C374.386 130.008 357.563 143 330.413 143H295.434ZM307.427 35.3991V76.7072H331.579C343.071 76.7072 356.563 71.7103 356.563 56.0532C356.563 41.0623 343.738 35.3991 328.247 35.3991H307.427ZM307.427 86.5345V132.673H329.746C347.069 132.673 362.226 126.177 362.226 109.687C362.226 94.1965 351.067 86.5345 331.912 86.5345H307.427ZM517.922 84.0361C517.922 119.847 491.604 145.998 456.459 145.998C421.314 145.998 394.997 119.847 394.997 84.0361C394.997 48.2246 421.314 22.074 456.459 22.074C491.604 22.074 517.922 48.2246 517.922 84.0361ZM505.263 84.0361C505.263 56.5529 486.774 32.5675 456.459 32.5675C426.144 32.5675 407.656 56.5529 407.656 84.0361C407.656 111.519 426.144 135.338 456.459 135.338C486.774 135.338 505.263 111.519 505.263 84.0361ZM632.786 118.015L642.114 124.012C634.285 135.838 619.128 145.998 597.974 145.998C562.329 145.998 536.512 119.847 536.512 84.0361C536.512 48.2246 562.829 22.074 597.974 22.074C615.297 22.074 631.787 29.2362 639.948 40.7292L629.955 48.0581C624.958 40.3961 613.132 32.5675 598.141 32.5675C567.659 32.5675 549.171 56.5529 549.171 84.0361C549.171 111.519 567.826 135.505 598.141 135.505C611.632 135.505 624.624 130.175 632.786 118.015Z" fill="white"/>
<line x1="12.6519" y1="155.063" x2="644.297" y2="153.797" stroke="#BB4245" stroke-width="6.32911"/>
</svg>
